<?xml version="1.0" encoding="utf-8"?>
<!-- Generator: Adobe Illustrator 21.1.0, SVG Export Plug-In . SVG Version: 6.00 Build 0)  -->
<svg version="1.1" id="Layer_1" xmlns="http://www.w3.org/2000/svg" xmlns:xlink="http://www.w3.org/1999/xlink" x="0px" y="0px"
	 viewBox="0 0 85 40" style="enable-background:new 0 0 85 40;" xml:space="preserve">
<style type="text/css">
	.st0{fill:#ED1459;}
</style>
<g>
	<path d="M0.7,15.6v-1L6,13.9L9.6,13l0.4,0.7v3.5h0.1c2-3,4.5-4.4,7.3-4.4c0.6,0,1.2,0.1,1.7,0.2c0.6,0.1,1.2,0.3,1.8,0.7
		c0.6,0.3,1.2,0.8,1.7,1.5c0.5,0.7,0.9,1.5,1.2,2.4h0.1c2.3-3.2,4.9-4.8,8-4.8c0.6,0,1.2,0.1,1.7,0.2c0.6,0.1,1.2,0.4,1.8,0.7
		c0.7,0.4,1.2,0.9,1.7,1.5c0.5,0.6,0.9,1.4,1.2,2.5c0.3,1.1,0.5,2.3,0.5,3.8v16.5l2.6,0.3v1H29.9v-1l2.6-0.3V20.5
		c0-1-0.1-1.9-0.3-2.6c-0.2-0.7-0.4-1.3-0.6-1.6c-0.2-0.4-0.5-0.6-0.9-0.8c-0.3-0.2-0.6-0.3-0.8-0.3c-0.2,0-0.4-0.1-0.7-0.1
		c-1.1,0-2.3,0.6-3.3,1.9c-1.1,1.3-1.6,3-1.6,5.2v15.7l2.6,0.3v1H15.4v-1l2.6-0.3V20.5c0-1-0.1-1.9-0.3-2.6
		c-0.2-0.7-0.4-1.3-0.6-1.6c-0.2-0.4-0.5-0.6-0.8-0.8c-0.3-0.2-0.6-0.3-0.8-0.3c-0.2,0-0.4-0.1-0.7-0.1c-1.1,0-2.2,0.7-3.2,2.2
		c-1,1.5-1.6,3.3-1.6,5.4v15.2l2.6,0.3v1H1.2v-1l2.6-0.3V15.6H0.7z"/>
	<path d="M42.6,15.6v-1l5.3-0.6l3.6-0.9l0.5,0.7v18.5c0,1,0.1,1.9,0.3,2.6c0.2,0.7,0.5,1.2,0.7,1.6c0.3,0.3,0.6,0.6,1,0.8
		c0.4,0.2,0.7,0.3,0.9,0.3c0.2,0,0.5,0,0.7,0c1.2,0,2.3-0.8,3.3-2.3c1-1.5,1.5-3.4,1.5-5.6V15.6h-3.1v-1l5.3-0.6l3.6-0.9l0.5,0.7
		v24.1l2.6,0.3v1h-8l-0.8-3.9h-0.1c-0.4,0.6-0.9,1.2-1.3,1.6c-0.4,0.5-0.9,0.9-1.5,1.5c-0.6,0.5-1.3,0.9-2.1,1.2
		c-0.8,0.3-1.6,0.4-2.5,0.4c-0.6,0-1.2-0.1-1.8-0.2c-0.6-0.1-1.2-0.3-2-0.7c-0.7-0.3-1.3-0.8-1.9-1.4c-0.5-0.6-1-1.4-1.3-2.5
		c-0.4-1.1-0.5-2.3-0.5-3.7V15.6H42.6z"/>
	<polygon points="72.3,15.6 72.3,14.5 77.7,13.9 81.3,13 81.7,13.7 81.7,37.9 84.4,38.1 84.4,39.2 72.8,39.2 72.8,38.1 75.5,37.9 
		75.5,15.6 	"/>
	<path class="st0" d="M75.1,3.9c0-0.5,0.1-0.9,0.3-1.3c0.2-0.4,0.4-0.8,0.7-1.1c0.3-0.3,0.7-0.5,1.1-0.7c0.4-0.2,0.8-0.3,1.3-0.3
		c0.5,0,0.9,0.1,1.3,0.3c0.4,0.2,0.8,0.4,1.1,0.7c0.3,0.3,0.6,0.7,0.7,1.1c0.2,0.4,0.3,0.8,0.3,1.3c0,0.5-0.1,0.9-0.3,1.3
		c-0.2,0.4-0.4,0.8-0.7,1.1c-0.3,0.3-0.7,0.6-1.1,0.7c-0.4,0.2-0.9,0.3-1.3,0.3c-0.5,0-0.9-0.1-1.3-0.3c-0.4-0.2-0.8-0.4-1.1-0.7
		c-0.3-0.3-0.5-0.7-0.7-1.1C75.2,4.8,75.1,4.4,75.1,3.9z"/>
</g>
</svg>
